<svg version="1.1" id="Layer_1" xmlns="http://www.w3.org/2000/svg" xmlns:xlink="http://www.w3.org/1999/xlink" x="0px" y="0px"
	 width="100%" viewBox="0 0 136 146" enable-background="new 0 0 136 146" xml:space="preserve">
<path fill="#FEFEFE" opacity="1.000000" stroke="none" 
	d="
M1.000000,63.000000 
	C1.000000,42.000000 1.000000,21.500000 1.000000,1.000000 
	C46.333332,1.000000 91.666664,1.000000 137.000000,1.000000 
	C137.000000,49.666668 137.000000,98.333336 137.000000,147.000000 
	C91.666664,147.000000 46.333332,147.000000 1.000000,147.000000 
	C1.000000,119.166664 1.000000,91.333336 1.000000,63.000000 
M83.496353,49.280205 
	C82.379555,48.785694 81.262749,48.291187 80.022049,46.766136 
	C79.974213,46.423473 79.926369,46.080811 79.881638,44.610138 
	C79.826630,43.223927 79.771629,41.837715 80.493195,41.256813 
	C81.378891,41.593391 83.023155,42.263088 83.042435,42.219181 
	C84.776779,38.269867 86.386383,34.265781 88.004425,30.265398 
	C87.525887,30.147085 87.047356,30.028770 85.604996,29.706654 
	C85.952477,28.350540 86.109245,26.906675 86.684921,25.655560 
	C88.132568,22.509430 87.982246,19.743963 85.469597,17.294083 
	C78.926964,18.949097 78.498589,24.116625 77.418793,29.957958 
	C76.759926,28.055372 76.101067,26.152786 75.037994,23.082954 
	C73.254288,27.176699 71.672974,30.523558 70.334534,33.964878 
	C69.212708,36.849274 70.348816,38.734619 71.978577,40.268326 
	C71.333046,41.643154 70.687523,43.017982 69.055420,44.367298 
	C67.916679,41.945152 66.763428,39.632946 63.550297,42.101986 
	C63.332954,42.268997 62.492004,41.624466 60.353291,40.355057 
	C59.750160,40.187771 59.147026,40.020485 59.153530,38.865051 
	C60.150677,37.680191 62.203587,36.195496 61.966625,35.361118 
	C60.788647,31.213263 59.007576,27.236683 57.438881,23.199789 
	C56.924896,23.403215 56.410912,23.606642 55.896923,23.810068 
	C56.139725,25.100037 56.660332,26.409073 56.573341,27.676401 
	C56.310261,31.509073 55.811478,35.325565 53.961239,39.212482 
	C52.642174,37.780277 51.323112,36.348068 50.613937,34.090591 
	C51.658440,34.200523 52.702946,34.310455 53.733292,34.418896 
	C55.515636,24.903757 53.123020,19.283333 46.555332,17.497246 
	C44.173843,20.497105 44.432739,23.610134 46.324589,26.689131 
	C47.445335,28.513145 48.909737,30.134172 49.936161,32.002220 
	C50.192699,32.469105 49.354298,33.537617 48.667400,33.718220 
	C47.248226,31.997364 45.829056,30.276508 44.409882,28.555653 
	C43.955688,28.786562 43.501495,29.017473 43.047302,29.248384 
	C45.021400,33.883091 46.995502,38.517803 48.880692,42.943768 
	C51.538738,41.931976 53.106682,41.335133 53.997940,41.865135 
	C53.607330,42.981232 53.216721,44.097328 52.810783,46.056934 
	C51.615231,47.554733 50.419682,49.052532 48.877319,51.606712 
	C48.741707,51.951630 48.606094,52.296543 47.878994,51.997444 
	C46.646378,52.044094 45.413761,52.090744 43.689697,51.293877 
	C43.785980,50.104473 44.378544,48.631886 43.890205,47.776070 
	C42.053177,44.556660 33.589600,41.926853 29.630335,44.020229 
	C28.577745,43.970299 27.523632,43.857517 26.472868,43.882973 
	C23.960787,43.943832 21.450281,44.069805 18.924623,44.170063 
	C19.629845,51.154476 24.571142,51.339745 28.475618,53.841816 
	C27.459131,54.403111 26.442646,54.964409 24.358448,56.115284 
	C29.908527,58.141270 34.536419,59.830624 40.318451,61.941280 
	C39.560360,59.277531 39.257195,58.212276 39.532429,56.354443 
	C40.764328,57.747963 41.996223,59.141483 43.483437,60.823814 
	C45.018265,60.266987 46.802025,59.619846 49.153358,59.920197 
	C48.544563,60.590324 48.029041,61.392391 47.307236,61.902660 
	C45.877522,62.913368 44.333893,63.762936 42.837349,64.679108 
	C44.395447,65.640091 45.943203,66.618576 47.518612,67.550285 
	C47.934250,67.796089 48.435295,67.897476 48.099586,69.058044 
	C42.638401,67.687881 40.508060,70.366600 40.338799,75.573532 
	C43.303608,76.699440 46.389664,80.699036 49.666695,76.134827 
	C50.781929,77.736740 45.660816,83.144814 52.881893,82.090294 
	C52.930573,82.413681 52.979256,82.737061 52.768311,83.636948 
	C52.527828,84.430588 52.287346,85.224236 51.518173,86.611061 
	C50.566700,86.938271 49.088200,86.989830 48.749443,87.637512 
	C46.582100,91.781334 44.665207,96.056145 42.250225,101.167786 
	C45.440479,99.471909 47.303555,98.481529 48.556629,98.103714 
	C45.968132,102.405144 42.739994,106.629906 46.711807,111.814919 
	C52.792824,109.727974 56.777493,99.544373 53.486652,94.770035 
	C53.333431,94.547745 52.184933,95.011475 50.951939,94.263702 
	C54.405445,91.885704 51.381363,88.696854 52.695213,86.165031 
	C54.243965,89.756363 56.873379,91.308090 60.133659,88.757973 
	C61.220562,87.907822 60.797947,85.127792 62.227501,83.405022 
	C64.496681,87.535782 66.945869,89.667374 70.150200,84.157776 
	C70.255562,83.976616 70.766769,84.031494 70.759422,84.907997 
	C68.490013,89.653786 73.422264,88.468445 75.128471,91.008896 
	C75.206444,91.321960 75.284409,91.635025 74.563332,91.911400 
	C73.183983,91.557343 71.804634,91.203285 68.699043,90.406128 
	C70.985123,96.378113 72.788208,101.088348 74.612564,105.854164 
	C76.236992,104.796196 77.155838,104.197762 78.601311,104.251236 
	C79.555252,108.083435 81.072105,111.374229 85.786545,111.768936 
	C89.589828,106.954102 86.447937,103.239655 84.122200,99.297714 
	C83.081383,97.533615 82.561256,95.462311 82.557175,94.337906 
	C84.207260,96.145271 85.857353,97.952637 88.449226,100.791557 
	C87.897438,97.661110 88.066917,95.483894 87.137978,93.989479 
	C85.042595,90.618568 82.403915,87.585381 79.159149,83.365662 
	C78.773102,83.143677 78.387047,82.921700 78.750748,82.044754 
	C80.401985,81.656715 82.053215,81.268677 84.074661,80.793640 
	C82.821518,78.567856 81.964470,77.192696 81.335487,75.720123 
	C81.266136,75.557747 82.502426,74.837700 83.344688,75.138290 
	C85.941460,81.151917 89.030533,75.753036 92.421417,76.362740 
	C90.964165,77.743347 89.506920,79.123947 88.055077,80.510231 
	C92.303772,85.294579 98.264763,87.539864 102.983498,84.959908 
	C106.471504,84.931129 110.289436,87.849159 113.444672,83.738441 
	C111.633827,76.250923 105.149406,77.059929 100.734077,75.229141 
	C102.374809,74.711945 104.015549,74.194740 105.656281,73.677544 
	C105.785439,73.261917 105.914589,72.846298 106.043747,72.430672 
	C101.848808,70.858727 97.653870,69.286781 92.756653,67.451675 
	C92.756653,70.093819 92.756653,71.524323 91.641022,72.777901 
	C90.996811,71.466873 90.352608,70.155846 89.509331,68.439697 
	C87.758629,68.986664 86.085808,69.509300 83.803032,69.113876 
	C85.022232,68.268661 86.261894,67.451073 87.453552,66.568665 
	C88.271423,65.963036 89.022568,65.267319 89.803535,64.611870 
	C89.041298,63.953632 88.286209,63.286873 87.515083,62.639210 
	C86.438606,61.735058 85.350143,60.845169 85.310616,59.936939 
	C87.545822,60.257294 90.086891,61.486168 91.043030,58.007126 
	C91.706825,58.301807 92.370613,58.596493 92.810318,59.693623 
	C96.671883,61.644211 103.098999,59.359505 106.696663,54.990631 
	C107.106728,53.946533 107.516792,52.902439 108.407997,51.348019 
	C110.285500,49.513706 112.163002,47.679398 114.040497,45.845089 
	C113.634644,45.050842 113.228790,44.256596 112.822929,43.462349 
	C110.170013,43.811680 107.517097,44.161007 104.133598,44.633423 
	C103.711525,44.233891 103.289452,43.834362 103.156776,43.139370 
	C103.143654,42.962364 103.130531,42.785362 103.117409,42.608356 
	C102.984810,42.839241 102.852211,43.070129 101.999893,43.904346 
	C97.547440,41.378189 94.213692,44.430904 90.444832,45.991402 
	C86.623276,47.573715 89.935394,50.471924 87.917854,51.867294 
	C86.961739,51.586861 86.005630,51.306423 84.604546,50.853443 
	C84.210571,50.584782 83.816597,50.316116 83.496353,49.280205 
M34.285282,82.184135 
	C33.273678,83.285049 32.262077,84.385971 31.250475,85.486893 
	C31.594461,86.036354 31.938448,86.585815 32.282433,87.135284 
	C36.543777,85.247429 40.805119,83.359573 45.803482,81.145210 
	C39.423218,76.937920 39.423218,76.937920 34.029087,81.251701 
	C34.559002,79.911552 35.088917,78.571411 35.620834,77.226196 
	C27.582830,74.368469 20.627142,77.408180 19.196342,84.253647 
	C23.969770,86.758858 24.937914,86.579933 30.427706,83.126381 
	C31.716684,82.315514 33.425430,82.171906 34.285282,82.184135 
M29.365215,94.828400 
	C30.630461,96.908516 31.423574,99.840530 33.273457,100.865753 
	C35.937164,102.342010 38.795586,101.071526 40.158733,97.940346 
	C41.528412,94.794159 40.400524,92.299339 37.566730,90.843185 
	C33.844456,88.930481 31.232506,90.509972 29.365215,94.828400 
M99.545670,100.998566 
	C103.048729,99.070885 104.453873,95.998093 101.949203,92.882973 
	C100.692719,91.320251 97.253311,90.299187 95.253723,90.808853 
	C91.493904,91.767181 91.345100,95.265671 92.286690,98.572052 
	C93.314461,102.181068 96.347702,101.026642 99.545670,100.998566 
M60.825340,19.053423 
	C60.221661,22.474049 61.333057,25.055075 64.825539,25.923420 
	C67.979774,26.707668 70.934441,25.395498 71.350822,22.268064 
	C71.630775,20.165379 70.404366,16.874083 68.738869,15.717924 
	C65.792686,13.672734 62.739510,14.925590 60.825340,19.053423 
M19.436205,59.615620 
	C18.550596,61.856583 17.026291,64.098694 17.030331,66.338058 
	C17.032581,67.586288 19.479767,69.679642 21.001915,69.854660 
	C22.794132,70.060730 25.468479,69.108200 26.482777,67.722755 
	C27.484081,66.355057 27.758446,62.956715 26.799604,61.992172 
	C25.233686,60.416958 22.407892,60.094173 19.436205,59.615620 
M71.309120,106.359283 
	C69.623817,103.289864 67.117973,102.163673 63.869442,103.609840 
	C60.783466,104.983635 59.633667,107.968201 61.157825,110.556732 
	C62.204510,112.334366 65.239265,114.004364 67.289177,113.896370 
	C71.003189,113.700699 72.343170,110.724098 71.309120,106.359283 
M30.117470,36.349056 
	C32.385521,39.383022 35.569115,40.325821 38.223217,37.797688 
	C39.691605,36.398991 40.367321,33.002163 39.819351,30.922642 
	C38.972271,27.708023 35.671696,27.065628 32.828827,28.274038 
	C29.748159,29.583523 28.423929,32.197033 30.117470,36.349056 
M101.104156,37.676018 
	C104.069527,33.116978 103.070732,28.573393 98.694427,28.146387 
	C96.780411,27.959633 93.867676,29.038572 92.912323,30.515514 
	C91.953873,31.997272 92.166023,35.090595 93.119629,36.761795 
	C94.692787,39.518764 97.599731,39.787716 101.104156,37.676018 
M115.526512,66.847565 
	C116.250725,61.159367 112.565697,57.247826 108.295876,59.473293 
	C106.720604,60.294334 105.131424,62.627903 105.050072,64.342842 
	C104.968811,66.055733 106.340561,68.555588 107.834038,69.466499 
	C110.448860,71.061348 113.247658,70.312317 115.526512,66.847565 
M32.325241,69.733513 
	C30.098749,70.996254 27.872253,72.258987 25.645760,73.521721 
	C37.265942,76.291573 39.223499,75.380409 39.300255,68.069305 
	C37.160957,68.521683 35.092587,68.959068 32.325241,69.733513 
M62.032143,94.368034 
	C61.916656,93.276360 61.801170,92.184685 61.647781,90.734741 
	C51.419098,93.091606 58.615822,101.146591 55.340534,105.486168 
	C55.951321,105.737595 56.562107,105.989021 57.172897,106.240448 
	C58.781952,102.558624 60.391010,98.876793 62.032143,94.368034 
M76.520180,22.395144 
	C76.520180,22.395144 76.606483,22.534319 76.520180,22.395144 
z"/>
<path fill="#7A8B37" opacity="1.000000" stroke="none" 
	d="
M99.730354,76.009850 
	C105.149406,77.059929 111.633827,76.250923 113.444672,83.738441 
	C110.289436,87.849159 106.471504,84.931129 102.750137,85.477875 
	C102.516769,85.995850 102.534210,86.057045 102.644310,85.539810 
	C102.160332,84.838997 101.566254,84.655426 100.800323,84.336281 
	C100.088753,83.982635 99.549026,83.764557 99.444275,83.317963 
	C98.555603,81.013054 97.231941,78.936676 96.104118,76.806396 
	C97.047264,76.512825 97.794563,76.273163 98.698212,76.023224 
	C98.854553,76.012939 99.297958,75.994102 99.297958,75.994102 
	C99.297958,75.994102 99.730354,76.009850 99.730354,76.009850 
z"/>
<path fill="#7A8B38" opacity="1.000000" stroke="none" 
	d="
M78.095825,29.299562 
	C78.498589,24.116625 78.926964,18.949097 85.469597,17.294083 
	C87.982246,19.743963 88.132568,22.509430 86.684921,25.655560 
	C86.109245,26.906675 85.952477,28.350540 86.103714,29.777309 
	C86.602425,29.847965 86.551414,29.980713 86.078796,29.613131 
	C85.231438,30.159027 84.856697,31.072508 84.498123,31.996065 
	C84.514275,32.006142 84.528366,31.970764 84.030685,31.682858 
	C83.694862,32.112373 83.856712,32.829800 83.851303,33.673454 
	C83.301369,34.205582 82.918709,34.611477 82.612610,34.535400 
	C81.308098,34.053425 79.927017,34.053425 78.189911,34.053425 
	C78.162994,33.465382 78.121094,32.550224 78.071312,31.342667 
	C78.074226,30.466698 78.085030,29.883131 78.095825,29.299562 
z"/>
<path fill="#7A8B37" opacity="1.000000" stroke="none" 
	d="
M28.388540,52.938915 
	C24.571142,51.339745 19.629845,51.154476 18.924623,44.170063 
	C21.450281,44.069805 23.960787,43.943832 26.472868,43.882973 
	C27.523632,43.857517 28.577745,43.970299 29.552778,43.502949 
	C29.475222,42.985668 29.472282,42.951443 29.191750,43.277283 
	C29.123423,44.096954 29.335627,44.590786 29.764399,45.388348 
	C30.647808,45.970764 31.314650,46.249454 32.007534,46.783760 
	C32.573776,47.674679 33.113976,48.309982 33.921700,49.117645 
	C34.808327,49.855103 35.427433,50.420200 36.064960,51.328781 
	C36.070282,52.130966 36.057182,52.589668 35.579220,52.968395 
	C32.900856,52.909855 30.687357,52.931286 28.439127,52.949730 
	C28.404396,52.946743 28.388540,52.938915 28.388540,52.938915 
z"/>
<path fill="#788934" opacity="1.000000" stroke="none" 
	d="
M49.019135,34.329617 
	C49.354298,33.537617 50.192699,32.469105 49.936161,32.002220 
	C48.909737,30.134172 47.445335,28.513145 46.324589,26.689131 
	C44.432739,23.610134 44.173843,20.497105 46.555332,17.497246 
	C53.123020,19.283333 55.515636,24.903757 53.733292,34.418896 
	C52.702946,34.310455 51.658440,34.200523 50.304123,34.508503 
	C49.669247,34.727482 49.344189,34.528549 49.019135,34.329617 
z"/>
<path fill="#7A8B37" opacity="1.000000" stroke="none" 
	d="
M81.804840,93.530418 
	C82.561256,95.462311 83.081383,97.533615 84.122200,99.297714 
	C86.447937,103.239655 89.589828,106.954102 85.786545,111.768936 
	C81.072105,111.374229 79.555252,108.083435 78.317581,103.945480 
	C78.033844,103.639725 78.049438,103.523201 78.070892,103.019394 
	C78.077126,101.842087 78.061890,101.168602 78.045654,100.190201 
	C78.051445,99.072304 78.058250,98.259308 78.036240,97.062134 
	C78.613617,96.110718 79.274284,95.590080 79.810478,94.963005 
	C80.333733,94.351074 80.729805,93.630409 81.262497,93.005493 
	C81.559258,93.154594 81.713104,93.313560 81.804840,93.530418 
z"/>
<path fill="#788934" opacity="1.000000" stroke="none" 
	d="
M51.499962,95.155708 
	C52.184933,95.011475 53.333431,94.547745 53.486652,94.770035 
	C56.777493,99.544373 52.792824,109.727974 46.711807,111.814919 
	C42.739994,106.629906 45.968132,102.405144 48.977211,97.657158 
	C50.098515,96.525635 50.799240,95.840675 51.499962,95.155708 
z"/>
<path fill="#7B8C38" opacity="1.000000" stroke="none" 
	d="
M34.941063,81.721321 
	C33.425430,82.171906 31.716684,82.315514 30.427706,83.126381 
	C24.937914,86.579933 23.969770,86.758858 19.196342,84.253647 
	C20.627142,77.408180 27.582830,74.368469 35.620834,77.226196 
	C35.088917,78.571411 34.559002,79.911552 34.424011,81.527176 
	C34.818935,81.802658 34.941063,81.721321 34.941063,81.721321 
z"/>
<path fill="#7A8B37" opacity="1.000000" stroke="none" 
	d="
M104.864182,44.510338 
	C107.517097,44.161007 110.170013,43.811680 112.822929,43.462349 
	C113.228790,44.256596 113.634644,45.050842 114.040497,45.845089 
	C112.163002,47.679398 110.285500,49.513706 107.896790,51.602516 
	C106.870117,52.005474 106.354645,52.153931 105.403351,52.357517 
	C101.963051,52.276638 98.958588,52.140629 96.122238,51.645481 
	C96.199593,50.864460 96.108818,50.442577 96.009476,50.010616 
	C96.000916,50.000534 96.023689,50.014210 96.326263,50.279022 
	C97.917816,49.038662 99.206810,47.533485 100.504471,46.021385 
	C100.513145,46.014462 100.529900,45.999908 100.953110,46.070946 
	C101.765068,45.761742 102.153809,45.381504 102.790070,45.017288 
	C103.646461,44.858990 104.255318,44.684662 104.864182,44.510338 
z"/>
<path fill="#65752D" opacity="1.000000" stroke="none" 
	d="
M29.496689,94.479134 
	C31.232506,90.509972 33.844456,88.930481 37.566730,90.843185 
	C40.400524,92.299339 41.528412,94.794159 40.158733,97.940346 
	C38.795586,101.071526 35.937164,102.342010 33.273457,100.865753 
	C31.423574,99.840530 30.630461,96.908516 29.496689,94.479134 
z"/>
<path fill="#64742C" opacity="1.000000" stroke="none" 
	d="
M99.182838,101.074738 
	C96.347702,101.026642 93.314461,102.181068 92.286690,98.572052 
	C91.345100,95.265671 91.493904,91.767181 95.253723,90.808853 
	C97.253311,90.299187 100.692719,91.320251 101.949203,92.882973 
	C104.453873,95.998093 103.048729,99.070885 99.182838,101.074738 
z"/>
<path fill="#64732B" opacity="1.000000" stroke="none" 
	d="
M60.909012,18.693142 
	C62.739510,14.925590 65.792686,13.672734 68.738869,15.717924 
	C70.404366,16.874083 71.630775,20.165379 71.350822,22.268064 
	C70.934441,25.395498 67.979774,26.707668 64.825539,25.923420 
	C61.333057,25.055075 60.221661,22.474049 60.909012,18.693142 
z"/>
<path fill="#64742C" opacity="1.000000" stroke="none" 
	d="
M19.774918,59.429310 
	C22.407892,60.094173 25.233686,60.416958 26.799604,61.992172 
	C27.758446,62.956715 27.484081,66.355057 26.482777,67.722755 
	C25.468479,69.108200 22.794132,70.060730 21.001915,69.854660 
	C19.479767,69.679642 17.032581,67.586288 17.030331,66.338058 
	C17.026291,64.098694 18.550596,61.856583 19.774918,59.429310 
z"/>
<path fill="#627229" opacity="1.000000" stroke="none" 
	d="
M71.482651,106.704514 
	C72.343170,110.724098 71.003189,113.700699 67.289177,113.896370 
	C65.239265,114.004364 62.204510,112.334366 61.157825,110.556732 
	C59.633667,107.968201 60.783466,104.983635 63.869442,103.609840 
	C67.117973,102.163673 69.623817,103.289864 71.482651,106.704514 
z"/>
<path fill="#66752D" opacity="1.000000" stroke="none" 
	d="
M29.983055,35.989174 
	C28.423929,32.197033 29.748159,29.583523 32.828827,28.274038 
	C35.671696,27.065628 38.972271,27.708023 39.819351,30.922642 
	C40.367321,33.002163 39.691605,36.398991 38.223217,37.797688 
	C35.569115,40.325821 32.385521,39.383022 29.983055,35.989174 
z"/>
<path fill="#617128" opacity="1.000000" stroke="none" 
	d="
M100.777374,37.899628 
	C97.599731,39.787716 94.692787,39.518764 93.119629,36.761795 
	C92.166023,35.090595 91.953873,31.997272 92.912323,30.515514 
	C93.867676,29.038572 96.780411,27.959633 98.694427,28.146387 
	C103.070732,28.573393 104.069527,33.116978 100.777374,37.899628 
z"/>
<path fill="#627229" opacity="1.000000" stroke="none" 
	d="
M115.317993,67.185562 
	C113.247658,70.312317 110.448860,71.061348 107.834038,69.466499 
	C106.340561,68.555588 104.968811,66.055733 105.050072,64.342842 
	C105.131424,62.627903 106.720604,60.294334 108.295876,59.473293 
	C112.565697,57.247826 116.250725,61.159367 115.317993,67.185562 
z"/>
<path fill="#7B8C39" opacity="1.000000" stroke="none" 
	d="
M48.585785,58.972702 
	C46.802025,59.619846 45.018265,60.266987 43.483437,60.823814 
	C41.996223,59.141483 40.764328,57.747963 39.280807,56.693642 
	C39.029186,57.032841 38.979168,56.539951 39.052013,56.551659 
	C39.124859,56.563370 39.257862,56.500965 39.806625,56.301956 
	C40.004742,54.513359 39.654091,52.923763 39.635063,51.276947 
	C41.371502,51.525616 42.776325,51.831505 44.181145,52.137394 
	C45.413761,52.090744 46.646378,52.044094 48.191826,52.300842 
	C48.504662,52.604240 48.537712,52.632927 48.607300,52.911415 
	C48.762344,53.563492 48.847805,53.937088 49.066902,54.495068 
	C49.622105,55.116199 50.043674,55.552940 50.394722,56.366173 
	C50.394611,57.493370 50.465023,58.244072 50.338543,58.985226 
	C49.623028,58.974682 49.104408,58.973690 48.585785,58.972702 
z"/>
<path fill="#7A8B38" opacity="1.000000" stroke="none" 
	d="
M79.716621,40.451504 
	C79.771629,41.837715 79.826630,43.223927 79.539223,45.284637 
	C77.842171,46.772362 76.440384,47.523949 75.193382,48.477882 
	C75.039864,48.595325 75.712845,49.793186 75.840439,50.606853 
	C75.294601,50.818829 74.911140,50.914322 74.633408,50.512611 
	C74.165581,49.848717 73.592033,49.682026 72.863014,49.326836 
	C72.322250,48.426479 71.936951,47.714622 71.381241,46.650452 
	C70.811569,45.686684 70.412331,45.075226 70.022873,44.435390 
	C70.032661,44.407017 70.041992,44.392811 70.041992,44.392811 
	C70.687523,43.017982 71.333046,41.643154 72.698479,39.837425 
	C74.106934,39.286678 74.795479,39.166832 75.962395,39.028419 
	C77.298912,39.184635 78.157059,39.359425 79.091690,39.640511 
	C79.368362,39.969482 79.551186,40.204384 79.716621,40.451504 
z"/>
<path fill="#7C8D3A" opacity="1.000000" stroke="none" 
	d="
M61.065399,83.229988 
	C60.797947,85.127792 61.220562,87.907822 60.133659,88.757973 
	C56.873379,91.308090 54.243965,89.756363 52.349060,86.085968 
	C52.002911,86.006905 52.046864,86.017876 52.046860,86.017876 
	C52.287346,85.224236 52.527828,84.430588 53.304108,83.204956 
	C54.065563,81.833199 54.291222,80.893440 54.723480,79.782318 
	C55.777061,79.405861 56.624035,79.200752 57.493408,79.492180 
	C59.015232,80.168320 60.514660,80.347931 61.959587,80.751274 
	C61.625191,81.726669 61.345295,82.478333 61.065399,83.229988 
z"/>
<path fill="#798A36" opacity="1.000000" stroke="none" 
	d="
M49.024303,75.031837 
	C46.389664,80.699036 43.303608,76.699440 40.338799,75.573532 
	C40.508060,70.366600 42.638401,67.687881 48.507038,68.560791 
	C49.513412,68.027473 50.112335,67.991417 50.374847,68.292419 
	C50.179821,70.087288 50.321205,71.545097 50.305744,73.155396 
	C49.774036,73.882538 49.399170,74.457184 49.024303,75.031837 
z"/>
<path fill="#788934" opacity="1.000000" stroke="none" 
	d="
M85.049515,51.025986 
	C86.005630,51.306423 86.961739,51.586861 88.505409,52.228882 
	C89.917900,53.064480 90.742828,53.538486 91.745766,54.369873 
	C92.270691,54.984329 92.617615,55.241413 92.937889,55.838322 
	C92.952293,57.082485 92.993347,57.986832 93.034409,58.891174 
	C92.370613,58.596493 91.706825,58.301807 91.043030,58.007126 
	C90.086891,61.486168 87.545822,60.257294 84.794235,59.972679 
	C84.040428,59.979534 83.789963,59.975468 83.396683,59.583267 
	C82.919830,58.184944 82.637413,57.169861 82.203171,56.224522 
	C81.909149,55.584450 81.401619,55.042446 81.017731,54.264717 
	C81.187836,53.715748 81.329796,53.358643 81.391136,53.459694 
	C82.556847,52.953899 83.803177,51.989941 85.049515,51.025986 
z"/>
<path fill="#7C8D3B" opacity="1.000000" stroke="none" 
	d="
M91.567764,54.012497 
	C90.742828,53.538486 89.917900,53.064480 88.933006,52.510918 
	C89.935394,50.471924 86.623276,47.573715 90.444832,45.991402 
	C94.213692,44.430904 97.547440,41.378189 102.424438,43.605495 
	C102.848991,43.306644 102.867386,43.434830 102.867386,43.434830 
	C103.289452,43.834362 103.711525,44.233891 104.498886,44.571880 
	C104.255318,44.684662 103.646461,44.858990 102.333878,44.643528 
	C101.263412,44.835796 100.896652,45.417854 100.529900,45.999908 
	C100.529900,45.999908 100.513145,46.014462 100.220154,45.654884 
	C98.626007,46.868275 97.324852,48.441242 96.023689,50.014210 
	C96.023689,50.014210 96.000916,50.000534 95.724442,49.735748 
	C94.795380,50.241199 94.142799,51.011433 93.081482,51.739494 
	C92.304420,52.469044 91.936096,53.240768 91.567764,54.012497 
z"/>
<path fill="#7E8F3E" opacity="1.000000" stroke="none" 
	d="
M43.935421,51.715637 
	C42.776325,51.831505 41.371502,51.525616 39.374725,51.172066 
	C38.247322,50.595032 37.711876,50.065662 37.122345,49.357162 
	C37.068253,49.178036 36.753662,48.975357 36.619431,48.669575 
	C35.705456,47.955502 34.925713,47.547211 34.145969,47.138920 
	C34.243618,47.790047 34.341263,48.441170 34.251045,49.011131 
	C34.063179,48.929966 33.654175,48.945286 33.654175,48.945286 
	C33.113976,48.309982 32.573776,47.674679 32.339432,46.510841 
	C32.321484,45.581577 31.997681,45.180847 31.520546,44.436172 
	C30.735571,43.711960 30.103928,43.331703 29.472282,42.951443 
	C29.472282,42.951443 29.475222,42.985668 29.478828,43.002396 
	C33.589600,41.926853 42.053177,44.556660 43.890205,47.776070 
	C44.378544,48.631886 43.785980,50.104473 43.935421,51.715637 
z"/>
<path fill="#7F8F3F" opacity="1.000000" stroke="none" 
	d="
M75.484039,39.046989 
	C74.795479,39.166832 74.106934,39.286678 73.400330,39.420563 
	C70.348816,38.734619 69.212708,36.849274 70.334534,33.964878 
	C71.672974,30.523558 73.254288,27.176699 75.037994,23.082954 
	C76.101067,26.152786 76.759926,28.055372 77.757309,29.628761 
	C78.085030,29.883131 78.074226,30.466698 77.630447,31.054569 
	C76.626328,33.721577 76.055183,36.384285 75.484039,39.046989 
z"/>
<path fill="#788934" opacity="1.000000" stroke="none" 
	d="
M84.412979,70.031937 
	C86.085808,69.509300 87.758629,68.986664 89.509331,68.439697 
	C90.352608,70.155846 90.996811,71.466873 92.221756,72.859840 
	C93.209602,73.121071 93.616714,73.300369 93.551102,73.259979 
	C92.710960,73.857300 92.343552,74.674286 91.944397,75.499176 
	C91.912651,75.507072 91.897316,75.507225 91.897316,75.507225 
	C89.030533,75.753036 85.941460,81.151917 83.196991,74.573471 
	C82.874382,73.678558 82.699486,73.348457 82.323792,72.707413 
	C82.197243,71.932785 82.271484,71.469093 82.510681,70.894211 
	C83.254738,70.532654 83.833862,70.282295 84.412979,70.031937 
z"/>
<path fill="#7D8E3D" opacity="1.000000" stroke="none" 
	d="
M78.049438,103.523201 
	C78.049438,103.523201 78.033844,103.639725 78.054260,103.619522 
	C77.155838,104.197762 76.236992,104.796196 74.612564,105.854164 
	C72.788208,101.088348 70.985123,96.378113 68.699043,90.406128 
	C71.804634,91.203285 73.183983,91.557343 74.991364,91.929565 
	C75.419395,91.947731 75.471001,91.976646 75.639832,92.317841 
	C75.868500,93.901825 75.729500,95.204727 76.078827,96.359970 
	C76.234619,96.875183 77.372757,97.093338 78.065048,97.446320 
	C78.058250,98.259308 78.051445,99.072304 77.598923,99.943466 
	C76.850349,101.050743 76.547501,102.099854 76.244644,103.148964 
	C76.846245,103.273712 77.447838,103.398460 78.049438,103.523201 
z"/>
<path fill="#7C8D3C" opacity="1.000000" stroke="none" 
	d="
M55.404556,39.148361 
	C55.811478,35.325565 56.310261,31.509073 56.573341,27.676401 
	C56.660332,26.409073 56.139725,25.100037 55.896923,23.810068 
	C56.410912,23.606642 56.924896,23.403215 57.438881,23.199789 
	C59.007576,27.236683 60.788647,31.213263 61.966625,35.361118 
	C62.203587,36.195496 60.150677,37.680191 58.819122,39.338158 
	C57.449162,39.577244 56.413609,39.343224 55.379196,39.116779 
	C55.380341,39.124355 55.404556,39.148361 55.404556,39.148361 
z"/>
<path fill="#798A36" opacity="1.000000" stroke="none" 
	d="
M94.023819,73.479660 
	C93.616714,73.300369 93.209602,73.121071 92.779572,72.948303 
	C92.756653,71.524323 92.756653,70.093819 92.756653,67.451675 
	C97.653870,69.286781 101.848808,70.858727 106.043747,72.430672 
	C105.914589,72.846298 105.785439,73.261917 105.656281,73.677544 
	C104.015549,74.194740 102.374809,74.711945 100.232216,75.619492 
	C99.730354,76.009850 99.297958,75.994102 99.297958,75.994102 
	C99.297958,75.994102 98.854553,76.012939 98.808731,75.533829 
	C97.183212,74.529694 95.603516,74.004677 94.023819,73.479660 
z"/>
<path fill="#7C8D3B" opacity="1.000000" stroke="none" 
	d="
M54.682899,39.180420 
	C55.404556,39.148361 55.380341,39.124355 55.298859,39.270218 
	C55.036461,39.856815 54.855541,40.297550 54.674625,40.738289 
	C53.106682,41.335133 51.538738,41.931976 48.880692,42.943768 
	C46.995502,38.517803 45.021400,33.883091 43.047302,29.248384 
	C43.501495,29.017473 43.955688,28.786562 44.409882,28.555653 
	C45.829056,30.276508 47.248226,31.997364 48.843269,34.023918 
	C49.344189,34.528549 49.669247,34.727482 49.999176,34.921135 
	C51.323112,36.348068 52.642174,37.780277 54.682899,39.180420 
z"/>
<path fill="#7D8D3C" opacity="1.000000" stroke="none" 
	d="
M50.711258,67.955353 
	C50.112335,67.991417 49.513412,68.027473 48.905807,68.064362 
	C48.435295,67.897476 47.934250,67.796089 47.518612,67.550285 
	C45.943203,66.618576 44.395447,65.640091 42.837349,64.679108 
	C44.333893,63.762936 45.877522,62.913368 47.307236,61.902660 
	C48.029041,61.392391 48.544563,60.590324 48.869572,59.446449 
	C49.104408,58.973690 49.623028,58.974682 50.075912,59.428802 
	C51.359539,60.436657 52.708904,60.991383 53.956745,61.849934 
	C53.911747,63.388821 53.968273,64.623878 53.585373,65.729439 
	C52.334381,66.385078 51.522820,67.170212 50.711258,67.955353 
z"/>
<path fill="#7D8D3C" opacity="1.000000" stroke="none" 
	d="
M51.225952,94.709702 
	C50.799240,95.840675 50.098515,96.525635 49.282211,97.350876 
	C47.303555,98.481529 45.440479,99.471909 42.250225,101.167786 
	C44.665207,96.056145 46.582100,91.781334 48.749443,87.637512 
	C49.088200,86.989830 50.566700,86.938271 51.782516,86.314468 
	C52.046864,86.017876 52.002911,86.006905 51.996964,85.984886 
	C51.381363,88.696854 54.405445,91.885704 51.225952,94.709702 
z"/>
<path fill="#7C8D3B" opacity="1.000000" stroke="none" 
	d="
M69.548706,44.380054 
	C70.041992,44.392811 70.032661,44.407017 69.533859,44.595093 
	C69.148972,46.344982 68.694550,48.551205 71.551659,47.002762 
	C71.936951,47.714622 72.322250,48.426479 72.447716,49.046108 
	C70.698509,49.276897 69.209122,49.599918 67.386124,49.906441 
	C66.152580,49.907402 65.252640,49.924862 63.929169,49.927040 
	C62.663216,49.445190 61.820797,48.978630 60.968124,48.211433 
	C61.124489,46.941784 61.291111,45.972759 61.793716,45.441116 
	C62.725307,45.012058 63.320915,44.145626 63.916523,43.279194 
	C63.257343,43.034573 62.598160,42.789951 61.946594,42.347359 
	C61.960648,41.885212 61.956276,41.621208 61.941086,41.357380 
	C62.492004,41.624466 63.332954,42.268997 63.550297,42.101986 
	C66.763428,39.632946 67.916679,41.945152 69.548706,44.380054 
z"/>
<path fill="#798A37" opacity="1.000000" stroke="none" 
	d="
M74.994522,90.050323 
	C73.422264,88.468445 68.490013,89.653786 70.908524,84.306641 
	C71.045944,82.977898 71.034271,82.250496 71.376846,81.486389 
	C72.487556,81.147110 73.244026,80.844559 74.229065,80.682953 
	C75.638763,81.449181 76.819885,82.074448 78.000999,82.699722 
	C78.387047,82.921700 78.773102,83.143677 79.582703,83.892113 
	C80.006248,84.418564 79.990517,84.443329 79.823807,84.780334 
	C79.252365,85.749367 78.847641,86.381386 78.335831,87.175697 
	C78.143196,87.713165 78.057648,88.088348 77.793915,88.764496 
	C77.080055,89.479057 76.544395,89.892654 75.772034,90.175438 
	C75.355064,90.046532 75.174789,90.048424 74.994522,90.050323 
z"/>
<path fill="#7D8E3D" opacity="1.000000" stroke="none" 
	d="
M78.375870,82.372238 
	C76.819885,82.074448 75.638763,81.449181 74.673279,80.411072 
	C74.627678,78.703331 74.366455,77.408424 74.091064,76.092819 
	C74.076889,76.072136 74.047218,76.033684 74.354538,76.249664 
	C76.090485,75.186935 77.519104,73.908234 79.435593,72.877541 
	C80.790504,73.089813 81.657547,73.054092 82.524590,73.018364 
	C82.699486,73.348457 82.874382,73.678558 83.091232,74.192474 
	C82.502426,74.837700 81.266136,75.557747 81.335487,75.720123 
	C81.964470,77.192696 82.821518,78.567856 84.074661,80.793640 
	C82.053215,81.268677 80.401985,81.656715 78.375870,82.372238 
z"/>
<path fill="#7B8C3A" opacity="1.000000" stroke="none" 
	d="
M77.972107,88.463524 
	C78.057648,88.088348 78.143196,87.713165 78.947685,87.487000 
	C79.774590,86.571785 79.882553,85.507553 79.990517,84.443329 
	C79.990517,84.443329 80.006248,84.418564 79.996262,84.416672 
	C82.403915,87.585381 85.042595,90.618568 87.137978,93.989479 
	C88.066917,95.483894 87.897438,97.661110 88.449226,100.791557 
	C85.857353,97.952637 84.207260,96.145271 82.181007,93.934158 
	C81.713104,93.313560 81.559258,93.154594 80.882751,92.873993 
	C80.138565,91.749687 79.979210,90.739433 79.528122,89.882828 
	C79.220467,89.298607 78.505150,88.929054 77.972107,88.463524 
z"/>
<path fill="#7A8B37" opacity="1.000000" stroke="none" 
	d="
M61.147186,40.856216 
	C61.956276,41.621208 61.960648,41.885212 61.953602,42.774719 
	C61.787914,43.934612 61.622829,44.469177 61.457741,45.003738 
	C61.291111,45.972759 61.124489,46.941784 60.542187,48.257275 
	C59.580143,48.721313 59.033775,48.838882 58.289680,48.772858 
	C57.243141,48.394695 56.394333,48.200130 55.400677,47.651833 
	C54.833462,47.013805 54.411091,46.729511 53.871765,46.320900 
	C53.445240,45.868866 53.135677,45.541149 52.826111,45.213428 
	C53.216721,44.097328 53.607330,42.981232 54.336281,41.301712 
	C54.855541,40.297550 55.036461,39.856815 55.297718,39.262642 
	C56.413609,39.343224 57.449162,39.577244 58.514305,39.832230 
	C59.147026,40.020485 59.750160,40.187771 61.147186,40.856216 
z"/>
<path fill="#7B8C3A" opacity="1.000000" stroke="none" 
	d="
M32.674728,69.564980 
	C35.092587,68.959068 37.160957,68.521683 39.300255,68.069305 
	C39.223499,75.380409 37.265942,76.291573 25.645760,73.521721 
	C27.872253,72.258987 30.098749,70.996254 32.674728,69.564980 
z"/>
<path fill="#7D8E3D" opacity="1.000000" stroke="none" 
	d="
M52.818451,45.635181 
	C53.135677,45.541149 53.445240,45.868866 53.586666,46.914883 
	C54.127525,47.757309 54.836525,47.881439 55.545525,48.005569 
	C56.394333,48.200130 57.243141,48.394695 58.008125,49.035805 
	C57.441666,50.977867 56.959026,52.473385 56.378078,54.008118 
	C56.090385,54.200191 55.909771,54.361134 55.281586,54.936005 
	C53.371914,55.557793 51.918579,55.773739 50.465244,55.989681 
	C50.043674,55.552940 49.622105,55.116199 49.434196,54.710384 
	C49.817081,53.812683 49.966305,52.884052 50.056061,51.670189 
	C49.739105,51.106747 49.481617,50.828541 49.224129,50.550331 
	C50.419682,49.052532 51.615231,47.554733 52.818451,45.635181 
z"/>
<path fill="#7D8E3D" opacity="1.000000" stroke="none" 
	d="
M71.022598,81.523102 
	C71.034271,82.250496 71.045944,82.977898 71.073212,83.840820 
	C70.766769,84.031494 70.255562,83.976616 70.150200,84.157776 
	C66.945869,89.667374 64.496681,87.535782 61.646446,83.317505 
	C61.345295,82.478333 61.625191,81.726669 62.206978,80.422829 
	C65.743942,78.375244 68.734367,78.140251 71.022598,81.523102 
z"/>
<path fill="#788936" opacity="1.000000" stroke="none" 
	d="
M84.108002,69.572906 
	C83.833862,70.282295 83.254738,70.532654 82.690277,70.515427 
	C82.657555,69.686165 82.826584,68.939293 82.529083,68.591698 
	C79.777107,65.376358 80.131577,62.037327 83.526459,59.996208 
	C83.789963,59.975468 84.040428,59.979534 84.272324,59.978798 
	C85.350143,60.845169 86.438606,61.735058 87.515083,62.639210 
	C88.286209,63.286873 89.041298,63.953632 89.803535,64.611870 
	C89.022568,65.267319 88.271423,65.963036 87.453552,66.568665 
	C86.261894,67.451073 85.022232,68.268661 84.108002,69.572906 
z"/>
<path fill="#7C8D3C" opacity="1.000000" stroke="none" 
	d="
M62.016106,94.781502 
	C60.391010,98.876793 58.781952,102.558624 57.172897,106.240448 
	C56.562107,105.989021 55.951321,105.737595 55.340534,105.486168 
	C58.615822,101.146591 51.419098,93.091606 61.647781,90.734741 
	C61.801170,92.184685 61.916656,93.276360 62.016106,94.781502 
z"/>
<path fill="#7C8D3B" opacity="1.000000" stroke="none" 
	d="
M92.159363,75.934982 
	C91.897316,75.507225 91.912651,75.507072 91.967422,75.807281 
	C92.990433,77.142258 93.958672,78.177025 95.026443,79.531410 
	C96.420418,81.082848 97.714859,82.314667 99.009293,83.546486 
	C99.549026,83.764557 100.088753,83.982635 100.935944,84.704407 
	C101.673683,85.491074 102.103943,85.774055 102.534210,86.057045 
	C102.534210,86.057045 102.516769,85.995850 102.498291,85.969666 
	C98.264763,87.539864 92.303772,85.294579 88.052368,80.507393 
	C89.506920,79.123947 90.964165,77.743347 92.159363,75.934982 
z"/>
<path fill="#7D8D3C" opacity="1.000000" stroke="none" 
	d="
M92.922363,59.292397 
	C92.993347,57.986832 92.952293,57.082485 93.320709,55.864777 
	C97.772186,55.266060 101.814194,54.980709 105.848869,54.795013 
	C105.841545,54.894672 106.010643,55.001179 106.010643,55.001179 
	C103.098999,59.359505 96.671883,61.644211 92.922363,59.292397 
z"/>
<path fill="#7C8C3B" opacity="1.000000" stroke="none" 
	d="
M38.979168,56.539951 
	C38.979168,56.539951 39.029186,57.032841 38.991608,57.089931 
	C39.257195,58.212276 39.560360,59.277531 40.318451,61.941280 
	C34.536419,59.830624 29.908527,58.141270 24.358448,56.115284 
	C26.442646,54.964409 27.459131,54.403111 28.432079,53.390366 
	C28.388540,52.938915 28.404396,52.946743 28.197411,53.401237 
	C30.651712,54.151825 33.313000,54.447918 36.350380,54.795479 
	C37.477371,55.411282 38.228268,55.975616 38.979168,56.539951 
z"/>
<path fill="#7D8D3C" opacity="1.000000" stroke="none" 
	d="
M80.104904,40.854156 
	C79.551186,40.204384 79.368362,39.969482 79.204117,39.270668 
	C80.338737,37.535477 81.437386,36.276424 82.536041,35.017372 
	C82.918709,34.611477 83.301369,34.205582 84.065933,33.307594 
	C84.474678,32.533920 84.501518,32.252342 84.528366,31.970764 
	C84.528366,31.970764 84.514275,32.006142 84.877411,31.926693 
	C85.677505,31.225067 86.114464,30.602892 86.551414,29.980713 
	C86.551414,29.980713 86.602425,29.847965 86.585617,29.879211 
	C87.047356,30.028770 87.525887,30.147085 88.004425,30.265400 
	C86.386383,34.265781 84.776779,38.269867 83.042435,42.219181 
	C83.023155,42.263088 81.378891,41.593391 80.104904,40.854156 
z"/>
<path fill="#798A37" opacity="1.000000" stroke="none" 
	d="
M34.613174,81.952728 
	C34.941063,81.721321 34.818935,81.802658 34.804703,81.837067 
	C39.423218,76.937920 39.423218,76.937920 45.803482,81.145210 
	C40.805119,83.359573 36.543777,85.247429 32.282433,87.135284 
	C31.938448,86.585815 31.594461,86.036354 31.250475,85.486893 
	C32.262077,84.385971 33.273678,83.285049 34.613174,81.952728 
z"/>
<path fill="#7B8C3A" opacity="1.000000" stroke="none" 
	d="
M49.345497,75.583328 
	C49.399170,74.457184 49.774036,73.882538 50.659718,73.549850 
	C52.154636,73.505623 53.138737,73.219429 54.281422,73.215225 
	C55.664745,75.001770 56.889488,76.506332 57.873146,78.204636 
	C57.578377,78.597481 57.524696,78.796562 57.471012,78.995651 
	C56.624035,79.200752 55.777061,79.405861 54.450768,79.841187 
	C53.551540,80.422295 53.131634,80.773186 52.711723,81.124077 
	C45.660816,83.144814 50.781929,77.736740 49.345497,75.583328 
z"/>
<path fill="#7A8B38" opacity="1.000000" stroke="none" 
	d="
M81.471756,53.001537 
	C81.329796,53.358643 81.187836,53.715748 80.789734,54.461433 
	C80.110367,55.517479 79.687126,56.184948 79.059235,56.581017 
	C78.250618,56.028183 77.646637,55.746746 77.012230,55.320091 
	C76.858078,54.983860 76.685081,54.912598 76.398880,54.665863 
	C76.042702,54.097248 75.750465,53.823872 75.312843,53.286781 
	C74.954201,52.351990 74.740944,51.680904 74.527687,51.009819 
	C74.911140,50.914322 75.294601,50.818829 76.099930,50.418930 
	C77.729858,49.341911 78.937904,48.569294 80.145950,47.796677 
	C81.262749,48.291187 82.379555,48.785694 83.208344,49.918747 
	C82.437477,51.372040 81.954620,52.186787 81.471756,53.001537 
z"/>
<path fill="#F3F5EE" opacity="1.000000" stroke="none" 
	d="
M80.084000,47.281403 
	C78.937904,48.569294 77.729858,49.341911 76.262314,50.302452 
	C75.712845,49.793186 75.039864,48.595325 75.193382,48.477882 
	C76.440384,47.523949 77.842171,46.772362 79.537674,45.848644 
	C79.926369,46.080811 79.974213,46.423473 80.084000,47.281403 
z"/>
<path fill="#F3F5EE" opacity="1.000000" stroke="none" 
	d="
M81.391136,53.459694 
	C81.954620,52.186787 82.437477,51.372040 83.171478,50.302368 
	C83.816597,50.316116 84.210571,50.584782 84.827026,50.939713 
	C83.803177,51.989941 82.556847,52.953899 81.391136,53.459694 
z"/>
<path fill="#F3F5EE" opacity="1.000000" stroke="none" 
	d="
M106.353653,54.995903 
	C106.010643,55.001179 105.841545,54.894672 105.866013,54.195824 
	C105.873383,53.098778 105.856277,52.700581 105.839172,52.302383 
	C106.354645,52.153931 106.870117,52.005474 107.656219,51.857681 
	C107.516792,52.902439 107.106728,53.946533 106.353653,54.995903 
z"/>
<path fill="#F3F5EE" opacity="1.000000" stroke="none" 
	d="
M52.796806,81.607185 
	C53.131634,80.773186 53.551540,80.422295 54.244164,80.012543 
	C54.291222,80.893440 54.065563,81.833199 53.433922,82.916702 
	C52.979256,82.737061 52.930573,82.413681 52.796806,81.607185 
z"/>
<path fill="#F3F5EE" opacity="1.000000" stroke="none" 
	d="
M75.061493,90.529610 
	C75.174789,90.048424 75.355064,90.046532 75.647278,90.596146 
	C75.663139,91.423996 75.567070,91.700317 75.471001,91.976646 
	C75.471001,91.976646 75.419395,91.947731 75.390884,91.947906 
	C75.284409,91.635025 75.206444,91.321960 75.061493,90.529610 
z"/>
<path fill="#F3F5EE" opacity="1.000000" stroke="none" 
	d="
M49.050724,51.078522 
	C49.481617,50.828541 49.739105,51.106747 49.639225,51.787460 
	C49.033806,52.337620 48.785759,52.485271 48.537712,52.632927 
	C48.537712,52.632927 48.504662,52.604240 48.487572,52.622849 
	C48.606094,52.296543 48.741707,51.951630 49.050724,51.078522 
z"/>
<path fill="#F3F5EE" opacity="1.000000" stroke="none" 
	d="
M102.784302,43.303829 
	C102.852211,43.070129 102.984810,42.839241 103.117409,42.608356 
	C103.130531,42.785362 103.143654,42.962364 103.012085,43.287102 
	C102.867386,43.434830 102.848991,43.306644 102.784302,43.303829 
z"/>
<path fill="#F3F5EE" opacity="1.000000" stroke="none" 
	d="
M76.563332,22.464731 
	C76.606483,22.534319 76.520180,22.395144 76.563332,22.464731 
z"/>
<path fill="#F3F5EE" opacity="1.000000" stroke="none" 
	d="
M99.444275,83.317963 
	C97.714859,82.314667 96.420418,81.082848 95.217758,78.920975 
	C95.509117,77.614044 95.708694,77.237175 95.908272,76.860306 
	C97.231941,78.936676 98.555603,81.013054 99.444275,83.317963 
z"/>
<path fill="#FEFEFE" opacity="1.000000" stroke="none" 
	d="
M96.104118,76.806396 
	C95.708694,77.237175 95.509117,77.614044 95.118225,78.601349 
	C93.958672,78.177025 92.990433,77.142258 91.999161,75.799377 
	C92.343552,74.674286 92.710960,73.857300 93.551102,73.259979 
	C95.603516,74.004677 97.183212,74.529694 98.652390,75.544106 
	C97.794563,76.273163 97.047264,76.512825 96.104118,76.806396 
z"/>
<path fill="#FEFEFE" opacity="1.000000" stroke="none" 
	d="
M102.644310,85.539810 
	C102.103943,85.774055 101.673683,85.491074 101.107796,84.839966 
	C101.566254,84.655426 102.160332,84.838997 102.644310,85.539810 
z"/>
<path fill="#FEFEFE" opacity="1.000000" stroke="none" 
	d="
M82.612610,34.535400 
	C81.437386,36.276424 80.338737,37.535477 79.127647,39.164371 
	C78.157059,39.359425 77.298912,39.184635 75.962402,39.028419 
	C76.055183,36.384285 76.626328,33.721577 77.638336,31.346970 
	C78.121094,32.550224 78.162994,33.465382 78.189911,34.053425 
	C79.927017,34.053425 81.308098,34.053425 82.612610,34.535400 
z"/>
<path fill="#F3F5EE" opacity="1.000000" stroke="none" 
	d="
M86.078796,29.613132 
	C86.114464,30.602892 85.677505,31.225067 84.861252,31.916616 
	C84.856697,31.072508 85.231438,30.159027 86.078796,29.613132 
z"/>
<path fill="#FEFEFE" opacity="1.000000" stroke="none" 
	d="
M84.030685,31.682858 
	C84.501518,32.252342 84.474678,32.533920 84.233200,33.181362 
	C83.856712,32.829800 83.694862,32.112373 84.030685,31.682858 
z"/>
<path fill="#FEFEFE" opacity="1.000000" stroke="none" 
	d="
M35.974289,54.744015 
	C33.313000,54.447918 30.651712,54.151825 28.232141,53.404224 
	C30.687357,52.931286 32.900856,52.909855 35.579372,52.969238 
	C36.044388,53.050053 36.054699,53.061077 36.025211,53.340534 
	C35.988579,53.994667 35.981434,54.369339 35.974289,54.744015 
z"/>
<path fill="#FEFEFE" opacity="1.000000" stroke="none" 
	d="
M37.176430,49.536289 
	C37.711876,50.065662 38.247322,50.595032 39.043102,51.229286 
	C39.654091,52.923763 40.004742,54.513359 39.774178,55.823326 
	C38.146873,54.716160 37.100784,53.888618 36.054699,53.061077 
	C36.054699,53.061077 36.044388,53.050053 36.044235,53.049210 
	C36.057182,52.589668 36.070282,52.130966 36.325157,51.150604 
	C36.770100,50.264721 36.973267,49.900505 37.176430,49.536289 
z"/>
<path fill="#F3F5EE" opacity="1.000000" stroke="none" 
	d="
M37.122341,49.357162 
	C36.973267,49.900505 36.770100,50.264721 36.306736,50.807121 
	C35.427433,50.420200 34.808327,49.855103 33.921700,49.117645 
	C33.654175,48.945286 34.063179,48.929966 34.538269,48.971756 
	C35.593464,49.000816 36.173561,48.988087 36.753662,48.975357 
	C36.753662,48.975357 37.068253,49.178036 37.122341,49.357162 
z"/>
<path fill="#F3F5EE" opacity="1.000000" stroke="none" 
	d="
M31.673876,44.780121 
	C31.997681,45.180847 32.321484,45.581577 32.313389,46.255222 
	C31.314650,46.249454 30.647808,45.970764 30.298676,45.324913 
	C30.968880,44.898540 31.321379,44.839329 31.673876,44.780121 
z"/>
<path fill="#FEFEFE" opacity="1.000000" stroke="none" 
	d="
M31.520546,44.436172 
	C31.321379,44.839329 30.968880,44.898540 30.082108,45.021187 
	C29.335627,44.590786 29.123423,44.096954 29.191750,43.277283 
	C30.103928,43.331703 30.735571,43.711960 31.520546,44.436172 
z"/>
<path fill="#FEFEFE" opacity="1.000000" stroke="none" 
	d="
M75.639832,92.317841 
	C75.567070,91.700317 75.663139,91.423996 75.883972,90.726959 
	C76.544395,89.892654 77.080055,89.479057 77.793915,88.764496 
	C78.505150,88.929054 79.220467,89.298607 79.528122,89.882828 
	C79.979210,90.739433 80.138565,91.749687 80.801971,92.825974 
	C80.729805,93.630409 80.333733,94.351074 79.810478,94.963005 
	C79.274284,95.590080 78.613617,96.110718 78.036240,97.062134 
	C77.372757,97.093338 76.234619,96.875183 76.078827,96.359970 
	C75.729500,95.204727 75.868500,93.901825 75.639832,92.317841 
z"/>
<path fill="#FEFEFE" opacity="1.000000" stroke="none" 
	d="
M78.070892,103.019394 
	C77.447838,103.398460 76.846245,103.273712 76.244644,103.148964 
	C76.547501,102.099854 76.850349,101.050743 77.599930,100.248367 
	C78.061890,101.168602 78.077126,101.842087 78.070892,103.019394 
z"/>
<path fill="#FEFEFE" opacity="1.000000" stroke="none" 
	d="
M105.403351,52.357513 
	C105.856277,52.700581 105.873383,53.098778 105.873337,54.096169 
	C101.814194,54.980709 97.772186,55.266060 93.347366,55.524956 
	C92.617615,55.241413 92.270691,54.984329 91.745766,54.369869 
	C91.936096,53.240768 92.304420,52.469044 93.490692,51.801041 
	C94.857124,51.938049 95.405624,51.971336 95.954117,52.004623 
	C98.958588,52.140629 101.963051,52.276638 105.403351,52.357513 
z"/>
<path fill="#F3F5EE" opacity="1.000000" stroke="none" 
	d="
M96.326263,50.279022 
	C97.324852,48.441242 98.626007,46.868275 100.211479,45.661804 
	C99.206810,47.533485 97.917816,49.038662 96.326263,50.279022 
z"/>
<path fill="#F3F5EE" opacity="1.000000" stroke="none" 
	d="
M96.122238,51.645485 
	C95.405624,51.971336 94.857124,51.938049 93.899429,51.843216 
	C94.142799,51.011433 94.795380,50.241199 95.733002,49.745834 
	C96.108818,50.442577 96.199593,50.864460 96.122238,51.645485 
z"/>
<path fill="#F3F5EE" opacity="1.000000" stroke="none" 
	d="
M100.953110,46.070946 
	C100.896652,45.417854 101.263412,44.835796 102.086357,44.627502 
	C102.153809,45.381504 101.765068,45.761742 100.953110,46.070946 
z"/>
<path fill="#FEFEFE" opacity="1.000000" stroke="none" 
	d="
M50.394722,56.366173 
	C51.918579,55.773739 53.371914,55.557793 55.455978,55.490494 
	C55.410564,57.608131 54.734417,59.577118 54.058270,61.546104 
	C52.708904,60.991383 51.359539,60.436657 50.272804,59.438354 
	C50.465023,58.244072 50.394611,57.493370 50.394722,56.366173 
z"/>
<path fill="#F3F5EE" opacity="1.000000" stroke="none" 
	d="
M36.025211,53.340534 
	C37.100784,53.888618 38.146873,54.716160 39.225410,56.022331 
	C39.257862,56.500965 39.124859,56.563370 39.052013,56.551659 
	C38.228268,55.975616 37.477371,55.411282 36.350380,54.795479 
	C35.981434,54.369339 35.988579,53.994667 36.025211,53.340534 
z"/>
<path fill="#FEFEFE" opacity="1.000000" stroke="none" 
	d="
M48.607300,52.911415 
	C48.785759,52.485271 49.033806,52.337620 49.698692,52.072693 
	C49.966305,52.884052 49.817081,53.812683 49.300560,54.525997 
	C48.847805,53.937088 48.762344,53.563492 48.607300,52.911415 
z"/>
<path fill="#FEFEFE" opacity="1.000000" stroke="none" 
	d="
M74.633408,50.512611 
	C74.740944,51.680904 74.954201,52.351990 75.195831,53.399269 
	C75.224190,53.775467 74.996658,54.003326 74.636581,54.042465 
	C74.038826,54.124199 73.801140,54.166794 73.294594,53.965546 
	C71.640274,53.151054 70.175926,52.712212 68.904419,51.951187 
	C68.315750,51.598854 68.102951,50.618546 67.719742,49.922939 
	C69.209122,49.599918 70.698509,49.276897 72.603188,49.234604 
	C73.592033,49.682026 74.165581,49.848717 74.633408,50.512611 
z"/>
<path fill="#FEFEFE" opacity="1.000000" stroke="none" 
	d="
M71.381241,46.650452 
	C68.694550,48.551205 69.148972,46.344982 69.524063,44.623466 
	C70.412331,45.075226 70.811569,45.686684 71.381241,46.650452 
z"/>
<path fill="#FEFEFE" opacity="1.000000" stroke="none" 
	d="
M57.493408,79.492180 
	C57.524696,78.796562 57.578377,78.597481 58.184639,78.169800 
	C59.190628,77.551613 59.644032,77.162033 60.439613,76.873215 
	C65.222931,76.687157 69.664078,76.400337 74.105225,76.113510 
	C74.366455,77.408424 74.627678,78.703331 74.444695,80.270126 
	C73.244026,80.844559 72.487556,81.147110 71.376846,81.486389 
	C68.734367,78.140251 65.743942,78.375244 62.261478,80.199089 
	C60.514660,80.347931 59.015232,80.168320 57.493408,79.492180 
z"/>
<path fill="#FEFEFE" opacity="1.000000" stroke="none" 
	d="
M54.122841,72.933228 
	C53.138737,73.219429 52.154636,73.505623 50.816559,73.397369 
	C50.321205,71.545097 50.179821,70.087288 50.374847,68.292419 
	C51.522820,67.170212 52.334381,66.385078 53.548046,66.257362 
	C54.288818,68.361870 54.627487,69.808945 54.948139,71.506134 
	C54.661026,72.148575 54.391933,72.540901 54.122841,72.933228 
z"/>
<path fill="#FEFEFE" opacity="1.000000" stroke="none" 
	d="
M79.263885,56.852417 
	C79.687126,56.184948 80.110367,55.517479 80.761597,54.653297 
	C81.401619,55.042446 81.909149,55.584450 82.203171,56.224522 
	C82.637413,57.169861 82.919830,58.184944 83.396683,59.583267 
	C80.131577,62.037327 79.777107,65.376358 82.529083,68.591698 
	C82.826584,68.939293 82.657555,69.686165 82.525330,70.626617 
	C82.271484,71.469093 82.197243,71.932785 82.323792,72.707413 
	C81.657547,73.054092 80.790504,73.089813 79.158768,72.643730 
	C77.943802,71.985023 77.493538,71.808128 77.329010,71.321770 
	C77.713211,66.731361 77.811661,62.450409 78.069580,57.888435 
	C78.573990,57.355747 78.918938,57.104084 79.263885,56.852417 
z"/>
<path fill="#FEFEFE" opacity="1.000000" stroke="none" 
	d="
M36.619431,48.669575 
	C36.173561,48.988087 35.593464,49.000816 34.726135,49.052917 
	C34.341263,48.441170 34.243618,47.790047 34.145969,47.138920 
	C34.925713,47.547211 35.705456,47.955502 36.619431,48.669575 
z"/>
<path fill="#9AAD3E" opacity="1.000000" stroke="none" 
	d="
M77.910110,58.169460 
	C77.811661,62.450409 77.713211,66.731361 77.039444,71.439682 
	C75.658493,73.255928 74.852852,74.644806 74.047218,76.033684 
	C74.047218,76.033684 74.076889,76.072136 74.091057,76.092819 
	C69.664078,76.400337 65.222931,76.687157 60.370560,76.557205 
	C58.294945,74.512306 56.630554,72.884163 54.966160,71.256027 
	C54.627487,69.808945 54.288818,68.361870 53.987473,66.386864 
	C53.968273,64.623878 53.911747,63.388821 53.956745,61.849930 
	C54.734417,59.577118 55.410564,57.608131 55.912315,55.084656 
	C55.909771,54.361134 56.090385,54.200191 56.331455,54.478813 
	C59.196270,53.531021 62.009399,52.151752 64.822525,50.772484 
	C64.665916,50.495762 64.509308,50.219044 64.352707,49.942326 
	C65.252640,49.924862 66.152580,49.907402 67.386124,49.906441 
	C68.102951,50.618546 68.315750,51.598854 68.904419,51.951187 
	C70.175926,52.712212 71.640274,53.151054 73.436096,54.229301 
	C74.152847,54.986488 74.459244,55.236073 74.934006,55.767666 
	C75.599564,56.172825 76.096748,56.295979 76.593918,56.419128 
	C76.550217,55.933117 76.506508,55.447109 76.462799,54.961098 
	C76.685081,54.912598 76.858078,54.983860 76.631912,55.616207 
	C76.824715,56.761513 77.367416,57.465485 77.910110,58.169460 
z"/>
<path fill="#FEFEFE" opacity="1.000000" stroke="none" 
	d="
M63.929169,49.927040 
	C64.509308,50.219044 64.665916,50.495762 64.822525,50.772484 
	C62.009399,52.151752 59.196270,53.531021 56.429764,54.439594 
	C56.959026,52.473385 57.441666,50.977867 58.205856,49.219402 
	C59.033775,48.838882 59.580143,48.721313 60.552444,48.557907 
	C61.820797,48.978630 62.663216,49.445190 63.929169,49.927040 
z"/>
<path fill="#FEFEFE" opacity="1.000000" stroke="none" 
	d="
M61.793724,45.441116 
	C61.622829,44.469177 61.787914,43.934612 61.945992,42.972687 
	C62.598160,42.789951 63.257343,43.034573 63.916523,43.279194 
	C63.320915,44.145626 62.725307,45.012058 61.793724,45.441116 
z"/>
<path fill="#F3F5EE" opacity="1.000000" stroke="none" 
	d="
M79.823807,84.780334 
	C79.882553,85.507553 79.774590,86.571785 79.054779,87.324707 
	C78.847641,86.381386 79.252365,85.749367 79.823807,84.780334 
z"/>
<path fill="#F3F5EE" opacity="1.000000" stroke="none" 
	d="
M74.354538,76.249664 
	C74.852852,74.644806 75.658493,73.255928 76.753700,71.749146 
	C77.493538,71.808128 77.943802,71.985023 78.670898,72.395729 
	C77.519104,73.908234 76.090485,75.186935 74.354538,76.249664 
z"/>
<path fill="#F3F5EE" opacity="1.000000" stroke="none" 
	d="
M55.400677,47.651833 
	C54.836525,47.881439 54.127525,47.757309 53.703625,47.039200 
	C54.411091,46.729511 54.833462,47.013805 55.400677,47.651833 
z"/>
<path fill="#F3F5EE" opacity="1.000000" stroke="none" 
	d="
M54.948139,71.506134 
	C56.630554,72.884163 58.294945,74.512306 60.028389,76.456444 
	C59.644032,77.162033 59.190628,77.551613 58.425724,77.976044 
	C56.889488,76.506332 55.664745,75.001770 54.281418,73.215225 
	C54.391933,72.540901 54.661026,72.148575 54.948139,71.506134 
z"/>
<path fill="#F3F5EE" opacity="1.000000" stroke="none" 
	d="
M78.069580,57.888435 
	C77.367416,57.465485 76.824715,56.761513 76.662338,55.761421 
	C77.646637,55.746746 78.250618,56.028183 79.059235,56.581020 
	C78.918938,57.104084 78.573990,57.355747 78.069580,57.888435 
z"/>
<path fill="#FEFEFE" opacity="1.000000" stroke="none" 
	d="
M76.398872,54.665863 
	C76.506508,55.447109 76.550217,55.933117 76.593918,56.419128 
	C76.096748,56.295979 75.599564,56.172825 75.005951,55.398643 
	C74.938553,54.499516 74.967606,54.251423 74.996658,54.003326 
	C74.996658,54.003326 75.224190,53.775467 75.341202,53.662979 
	C75.750465,53.823872 76.042702,54.097248 76.398872,54.665863 
z"/>
<path fill="#F3F5EE" opacity="1.000000" stroke="none" 
	d="
M74.636581,54.042465 
	C74.967606,54.251423 74.938553,54.499516 74.837570,55.116634 
	C74.459244,55.236073 74.152847,54.986488 73.704956,54.473148 
	C73.801140,54.166794 74.038826,54.124199 74.636581,54.042465 
z"/>
</svg>